<?xml version="1.0" encoding="UTF-8"?> <svg xmlns="http://www.w3.org/2000/svg" id="Layer_1" data-name="Layer 1" viewBox="0 0 151.97 38.24"><g><path d="M46,14.91h4.4c2.63,0,4.41-1.45,4.41-3.59A3.5,3.5,0,0,0,51,7.73H46Zm4.37,5.36H46v9.47H39.51V2.37H51.72c5.88,0,9.8,3.58,9.8,9A8.34,8.34,0,0,1,56.82,19l7,10.76H56.16Z" style="fill: #26124d"></path><path d="M65.35,9.58h6.29V29.74H65.35Zm-.48-6a3.64,3.64,0,0,1,7.28,0,3.64,3.64,0,0,1-7.28,0" style="fill: #26124d"></path><polygon points="73.21 9.58 80.05 9.58 84.6 22.6 89.11 9.58 95.99 9.58 87.74 29.74 81.49 29.74 73.21 9.58" style="fill: #26124d"></polygon><path d="M102.28,17.64h7.36c-.4-2.29-1.62-3.51-3.73-3.51s-3.22,1.26-3.63,3.51m13.8,4.22H102.25c.37,2.07,1.48,3.33,3.88,3.33a5.17,5.17,0,0,0,4.07-1.85l4.88,2.37a10.46,10.46,0,0,1-8.88,4.4c-6.36,0-10.61-4.07-10.61-10.25,0-6.36,4.1-10.65,10.32-10.65s10.32,4,10.32,10.13c0,.86-.08,1.82-.15,2.52" style="fill: #26124d"></path><path d="M131,9.21l-.4,5.77c-3.85,0-6.55,1.77-6.55,4.4V29.74H117.8V9.58h6.07L124,12A9.27,9.27,0,0,1,131,9.21" style="fill: #26124d"></path><path d="M152,9.58v18c0,6.4-4.59,10.61-11.54,10.61a12.61,12.61,0,0,1-8-2.47l1.37-4.92a10.3,10.3,0,0,0,6.47,2,5.06,5.06,0,0,0,5.4-5.07,7.6,7.6,0,0,1-5.58,2.3c-4.48,0-7.47-3.15-7.47-7.92V9.58h6.28V21.27a3.39,3.39,0,1,0,6.77,0V9.58Z" style="fill: #26124d"></path><path d="M2.77,7.11l9.54,5.43L2.77,18Zm0,22.63V21.18l15,8.56h5.54L5.51,19.58l12.34-7L0,2.37V29.74Z" style="fill: #26124d"></path><path d="M24.6,25l-9.54-5.44,9.54-5.43Zm0-22.63v8.56l-15-8.56H4L21.86,12.53l-12.34,7L27.37,29.74V2.37Z" style="fill: #26124d"></path></g></svg> 